<svg width="410" height="410" viewBox="0 0 410 410" fill="none" xmlns="http://www.w3.org/2000/svg">
<rect width="410" height="410" rx="20" fill="white"/>
<g clip-path="url(#clip0_16696_59888)">
<path d="M20 30C20 24.4772 24.4772 20 30 20V20V30H20V30ZM30 20H40V30H30V20ZM40 20H50V30H40V20ZM50 20H60V30H50V20ZM60 20H70V30H60V20ZM70 20H80V30H70V20ZM80 20H90V30H80V20ZM110 20H120V30H110V20ZM120 20H130V30H120V20ZM140 20H150V30H140V20ZM150 20H160V30H150V20ZM160 20H170V30H160V20ZM170 20H180V30H170V20ZM180 20H190V30H180V20ZM190 20H200V30H190V20ZM210 20H220V30H210V20ZM240 20H250V30H240V20ZM260 20H270V30H260V20ZM270 20H280V30H270V20ZM280 20H290V30H280V20ZM290 20H300V30H290V20ZM300 20H310V30H300V20ZM320 20H330V30H320V20ZM330 20H340V30H330V20ZM340 20H350V30H340V20ZM350 20H360V30H350V20ZM360 20H370V30H360V20ZM370 20H380V30H370V20ZM380 20V20C385.523 20 390 24.4772 390 30V30H380V20ZM20 30H30V40H20V30ZM80 30H90V40H80V30ZM130 30H140V40H130V30ZM150 30H160V40H150V30ZM190 30H200V40H190V30ZM200 30H210V40H200V30ZM220 30H230V40H220V30ZM270 30H280V40H270V30ZM320 30H330V40H320V30ZM380 30H390V40H380V30ZM20 40H30V50H20V40ZM40 40H50V50H40V40ZM50 40H60V50H50V40ZM60 40H70V50H60V40ZM80 40H90V50H80V40ZM100 40H110V50H100V40ZM130 40H140V50H130V40ZM140 40H150V50H140V40ZM170 40H180V50H170V40ZM200 40H210V50H200V40ZM230 40H240V50H230V40ZM240 40H250V50H240V40ZM250 40H260V50H250V40ZM320 40H330V50H320V40ZM340 40H350V50H340V40ZM350 40H360V50H350V40ZM360 40H370V50H360V40ZM380 40H390V50H380V40ZM20 50H30V60H20V50ZM40 50H50V60H40V50ZM50 50H60V60H50V50ZM60 50H70V60H60V50ZM80 50H90V60H80V50ZM120 50H130V60H120V50ZM140 50H150V60H140V50ZM160 50H170V60H160V50ZM170 50H180V60H170V50ZM190 50H200V60H190V50ZM210 50H220V60H210V50ZM250 50H260V60H250V50ZM270 50H280V60H270V50ZM280 50H290V60H280V50ZM300 50H310V60H300V50ZM320 50H330V60H320V50ZM340 50H350V60H340V50ZM350 50H360V60H350V50ZM360 50H370V60H360V50ZM380 50H390V60H380V50ZM20 60H30V70H20V60ZM40 60H50V70H40V60ZM50 60H60V70H50V60ZM60 60H70V70H60V60ZM80 60H90V70H80V60ZM100 60H110V70H100V60ZM130 60H140V70H130V60ZM140 60H150V70H140V60ZM160 60H170V70H160V60ZM200 60H210V70H200V60ZM230 60H240V70H230V60ZM250 60H260V70H250V60ZM270 60H280V70H270V60ZM290 60H300V70H290V60ZM320 60H330V70H320V60ZM340 60H350V70H340V60ZM350 60H360V70H350V60ZM360 60H370V70H360V60ZM380 60H390V70H380V60ZM20 70H30V80H20V70ZM80 70H90V80H80V70ZM100 70H110V80H100V70ZM110 70H120V80H110V70ZM120 70H130V80H120V70ZM180 70H190V80H180V70ZM190 70H200V80H190V70ZM200 70H210V80H200V70ZM210 70H220V80H210V70ZM230 70H240V80H230V70ZM240 70H250V80H240V70ZM270 70H280V80H270V70ZM280 70H290V80H280V70ZM300 70H310V80H300V70ZM320 70H330V80H320V70ZM380 70H390V80H380V70ZM20 80H30V90H20V80ZM30 80H40V90H30V80ZM40 80H50V90H40V80ZM50 80H60V90H50V80ZM60 80H70V90H60V80ZM70 80H80V90H70V80ZM80 80H90V90H80V80ZM100 80H110V90H100V80ZM120 80H130V90H120V80ZM140 80H150V90H140V80ZM160 80H170V90H160V80ZM180 80H190V90H180V80ZM200 80H210V90H200V80ZM220 80H230V90H220V80ZM240 80H250V90H240V80ZM260 80H270V90H260V80ZM280 80H290V90H280V80ZM300 80H310V90H300V80ZM320 80H330V90H320V80ZM330 80H340V90H330V80ZM340 80H350V90H340V80ZM350 80H360V90H350V80ZM360 80H370V90H360V80ZM370 80H380V90H370V80ZM380 80H390V90H380V80ZM120 90H130V100H120V90ZM130 90H140V100H130V90ZM140 90H150V100H140V90ZM150 90H160V100H150V90ZM230 90H240V100H230V90ZM260 90H270V100H260V90ZM280 90H290V100H280V90ZM30 100H40V110H30V100ZM60 100H70V110H60V100ZM80 100H90V110H80V100ZM100 100H110V110H100V100ZM110 100H120V110H110V100ZM160 100H170V110H160V100ZM210 100H220V110H210V100ZM240 100H250V110H240V100ZM250 100H260V110H250V100ZM260 100H270V110H260V100ZM270 100H280V110H270V100ZM280 100H290V110H280V100ZM290 100H300V110H290V100ZM310 100H320V110H310V100ZM330 100H340V110H330V100ZM340 100H350V110H340V100ZM360 100H370V110H360V100ZM50 110H60V120H50V110ZM70 110H80V120H70V110ZM100 110H110V120H100V110ZM110 110H120V120H110V110ZM130 110H140V120H130V110ZM150 110H160V120H150V110ZM160 110H170V120H160V110ZM180 110H190V120H180V110ZM200 110H210V120H200V110ZM220 110H230V120H220V110ZM240 110H250V120H240V110ZM250 110H260V120H250V110ZM260 110H270V120H260V110ZM300 110H310V120H300V110ZM310 110H320V120H310V110ZM340 110H350V120H340V110ZM20 120H30V130H20V120ZM30 120H40V130H30V120ZM40 120H50V130H40V120ZM70 120H80V130H70V120ZM80 120H90V130H80V120ZM100 120H110V130H100V120ZM110 120H120V130H110V120ZM120 120H130V130H120V120ZM130 120H140V130H130V120ZM170 120H180V130H170V120ZM180 120H190V130H180V120ZM190 120H200V130H190V120ZM220 120H230V130H220V120ZM230 120H240V130H230V120ZM240 120H250V130H240V120ZM250 120H260V130H250V120ZM260 120H270V130H260V120ZM270 120H280V130H270V120ZM280 120H290V130H280V120ZM300 120H310V130H300V120ZM310 120H320V130H310V120ZM340 120H350V130H340V120ZM350 120H360V130H350V120ZM20 130H30V140H20V130ZM30 130H40V140H30V130ZM60 130H70V140H60V130ZM70 130H80V140H70V130ZM90 130H100V140H90V130ZM120 130H130V140H120V130ZM140 130H150V140H140V130ZM150 130H160V140H150V130ZM180 130H190V140H180V130ZM190 130H200V140H190V130ZM200 130H210V140H200V130ZM210 130H220V140H210V130ZM230 130H240V140H230V130ZM250 130H260V140H250V130ZM260 130H270V140H260V130ZM280 130H290V140H280V130ZM310 130H320V140H310V130ZM350 130H360V140H350V130ZM360 130H370V140H360V130ZM370 130H380V140H370V130ZM380 130H390V140H380V130ZM20 140H30V150H20V140ZM30 140H40V150H30V140ZM40 140H50V150H40V140ZM60 140H70V150H60V140ZM70 140H80V150H70V140ZM80 140H90V150H80V140ZM110 140H120V150H110V140ZM140 140H150V150H140V140ZM160 140H170V150H160V140ZM190 140H200V150H190V140ZM200 140H210V150H200V140ZM220 140H230V150H220V140ZM230 140H240V150H230V140ZM240 140H250V150H240V140ZM290 140H300V150H290V140ZM310 140H320V150H310V140ZM320 140H330V150H320V140ZM330 140H340V150H330V140ZM350 140H360V150H350V140ZM360 140H370V150H360V140ZM380 140H390V150H380V140ZM20 150H30V160H20V150ZM40 150H50V160H40V150ZM70 150H80V160H70V150ZM100 150H110V160H100V150ZM110 150H120V160H110V150ZM140 150H150V160H140V150ZM160 150H170V160H160V150ZM180 150H190V160H180V150ZM190 150H200V160H190V150ZM210 150H220V160H210V150ZM230 150H240V160H230V150ZM250 150H260V160H250V150ZM290 150H300V160H290V150ZM300 150H310V160H300V150ZM310 150H320V160H310V150ZM340 150H350V160H340V150ZM360 150H370V160H360V150ZM40 160H50V170H40V160ZM50 160H60V170H50V160ZM70 160H80V170H70V160ZM80 160H90V170H80V160ZM90 160H100V170H90V160ZM100 160H110V170H100V160ZM250 160H260V170H250V160ZM270 160H280V170H270V160ZM290 160H300V170H290V160ZM330 160H340V170H330V160ZM350 160H360V170H350V160ZM360 160H370V170H360V160ZM370 160H380V170H370V160ZM20 170H30V180H20V170ZM30 170H40V180H30V170ZM40 170H50V180H40V170ZM60 170H70V180H60V170ZM70 170H80V180H70V170ZM90 170H100V180H90V170ZM110 170H120V180H110V170ZM130 170H140V180H130V170ZM140 170H150V180H140V170ZM280 170H290V180H280V170ZM300 170H310V180H300V170ZM340 170H350V180H340V170ZM360 170H370V180H360V170ZM370 170H380V180H370V170ZM20 180H30V190H20V180ZM50 180H60V190H50V180ZM70 180H80V190H70V180ZM80 180H90V190H80V180ZM90 180H100V190H90V180ZM110 180H120V190H110V180ZM120 180H130V190H120V180ZM150 180H160V190H150V180ZM250 180H260V190H250V180ZM260 180H270V190H260V180ZM280 180H290V190H280V180ZM310 180H320V190H310V180ZM320 180H330V190H320V180ZM330 180H340V190H330V180ZM350 180H360V190H350V180ZM360 180H370V190H360V180ZM370 180H380V190H370V180ZM380 180H390V190H380V180ZM20 190H30V200H20V190ZM40 190H50V200H40V190ZM60 190H70V200H60V190ZM70 190H80V200H70V190ZM100 190H110V200H100V190ZM110 190H120V200H110V190ZM120 190H130V200H120V190ZM140 190H150V200H140V190ZM270 190H280V200H270V190ZM280 190H290V200H280V190ZM290 190H300V200H290V190ZM300 190H310V200H300V190ZM340 190H350V200H340V190ZM350 190H360V200H350V190ZM360 190H370V200H360V190ZM20 200H30V210H20V200ZM40 200H50V210H40V200ZM50 200H60V210H50V200ZM60 200H70V210H60V200ZM80 200H90V210H80V200ZM100 200H110V210H100V200ZM150 200H160V210H150V200ZM290 200H300V210H290V200ZM310 200H320V210H310V200ZM340 200H350V210H340V200ZM350 200H360V210H350V200ZM20 210H30V220H20V210ZM30 210H40V220H30V210ZM60 210H70V220H60V210ZM70 210H80V220H70V210ZM90 210H100V220H90V210ZM100 210H110V220H100V210ZM110 210H120V220H110V210ZM120 210H130V220H120V210ZM140 210H150V220H140V210ZM150 210H160V220H150V210ZM260 210H270V220H260V210ZM280 210H290V220H280V210ZM290 210H300V220H290V210ZM300 210H310V220H300V210ZM330 210H340V220H330V210ZM340 210H350V220H340V210ZM360 210H370V220H360V210ZM380 210H390V220H380V210ZM30 220H40V230H30V220ZM40 220H50V230H40V220ZM70 220H80V230H70V220ZM80 220H90V230H80V220ZM90 220H100V230H90V220ZM100 220H110V230H100V220ZM110 220H120V230H110V220ZM120 220H130V230H120V220ZM150 220H160V230H150V220ZM250 220H260V230H250V220ZM280 220H290V230H280V220ZM290 220H300V230H290V220ZM310 220H320V230H310V220ZM320 220H330V230H320V220ZM360 220H370V230H360V220ZM380 220H390V230H380V220ZM30 230H40V240H30V230ZM40 230H50V240H40V230ZM100 230H110V240H100V230ZM120 230H130V240H120V230ZM140 230H150V240H140V230ZM250 230H260V240H250V230ZM260 230H270V240H260V230ZM290 230H300V240H290V230ZM310 230H320V240H310V230ZM340 230H350V240H340V230ZM350 230H360V240H350V230ZM360 230H370V240H360V230ZM370 230H380V240H370V230ZM30 240H40V250H30V240ZM40 240H50V250H40V240ZM50 240H60V250H50V240ZM60 240H70V250H60V240ZM70 240H80V250H70V240ZM80 240H90V250H80V240ZM90 240H100V250H90V240ZM100 240H110V250H100V240ZM110 240H120V250H110V240ZM120 240H130V250H120V240ZM130 240H140V250H130V240ZM140 240H150V250H140V240ZM250 240H260V250H250V240ZM270 240H280V250H270V240ZM280 240H290V250H280V240ZM290 240H300V250H290V240ZM300 240H310V250H300V240ZM360 240H370V250H360V240ZM20 250H30V260H20V250ZM40 250H50V260H40V250ZM120 250H130V260H120V250ZM130 250H140V260H130V250ZM150 250H160V260H150V250ZM160 250H170V260H160V250ZM170 250H180V260H170V250ZM180 250H190V260H180V250ZM190 250H200V260H190V250ZM210 250H220V260H210V250ZM230 250H240V260H230V250ZM250 250H260V260H250V250ZM260 250H270V260H260V250ZM270 250H280V260H270V250ZM300 250H310V260H300V250ZM330 250H340V260H330V250ZM350 250H360V260H350V250ZM360 250H370V260H360V250ZM20 260H30V270H20V260ZM30 260H40V270H30V260ZM40 260H50V270H40V260ZM50 260H60V270H50V260ZM60 260H70V270H60V260ZM80 260H90V270H80V260ZM90 260H100V270H90V260ZM100 260H110V270H100V260ZM130 260H140V270H130V260ZM140 260H150V270H140V260ZM150 260H160V270H150V260ZM170 260H180V270H170V260ZM180 260H190V270H180V260ZM200 260H210V270H200V260ZM210 260H220V270H210V260ZM220 260H230V270H220V260ZM240 260H250V270H240V260ZM250 260H260V270H250V260ZM260 260H270V270H260V260ZM270 260H280V270H270V260ZM290 260H300V270H290V260ZM310 260H320V270H310V260ZM320 260H330V270H320V260ZM360 260H370V270H360V260ZM380 260H390V270H380V260ZM20 270H30V280H20V270ZM50 270H60V280H50V270ZM60 270H70V280H60V270ZM90 270H100V280H90V270ZM100 270H110V280H100V270ZM110 270H120V280H110V270ZM120 270H130V280H120V270ZM130 270H140V280H130V270ZM150 270H160V280H150V270ZM160 270H170V280H160V270ZM170 270H180V280H170V270ZM190 270H200V280H190V270ZM210 270H220V280H210V270ZM220 270H230V280H220V270ZM240 270H250V280H240V270ZM250 270H260V280H250V270ZM270 270H280V280H270V270ZM280 270H290V280H280V270ZM340 270H350V280H340V270ZM350 270H360V280H350V270ZM360 270H370V280H360V270ZM380 270H390V280H380V270ZM40 280H50V290H40V280ZM50 280H60V290H50V280ZM60 280H70V290H60V280ZM80 280H90V290H80V280ZM90 280H100V290H90V280ZM110 280H120V290H110V280ZM140 280H150V290H140V280ZM150 280H160V290H150V280ZM160 280H170V290H160V280ZM180 280H190V290H180V280ZM190 280H200V290H190V280ZM250 280H260V290H250V280ZM260 280H270V290H260V280ZM290 280H300V290H290V280ZM310 280H320V290H310V280ZM360 280H370V290H360V280ZM50 290H60V300H50V290ZM60 290H70V300H60V290ZM100 290H110V300H100V290ZM110 290H120V300H110V290ZM140 290H150V300H140V290ZM190 290H200V300H190V290ZM200 290H210V300H200V290ZM210 290H220V300H210V290ZM230 290H240V300H230V290ZM240 290H250V300H240V290ZM250 290H260V300H250V290ZM260 290H270V300H260V290ZM280 290H290V300H280V290ZM290 290H300V300H290V290ZM320 290H330V300H320V290ZM330 290H340V300H330V290ZM360 290H370V300H360V290ZM370 290H380V300H370V290ZM20 300H30V310H20V300ZM30 300H40V310H30V300ZM40 300H50V310H40V300ZM50 300H60V310H50V300ZM70 300H80V310H70V300ZM80 300H90V310H80V300ZM90 300H100V310H90V300ZM100 300H110V310H100V300ZM110 300H120V310H110V300ZM160 300H170V310H160V300ZM180 300H190V310H180V300ZM190 300H200V310H190V300ZM200 300H210V310H200V300ZM210 300H220V310H210V300ZM240 300H250V310H240V300ZM250 300H260V310H250V300ZM300 300H310V310H300V300ZM310 300H320V310H310V300ZM320 300H330V310H320V300ZM330 300H340V310H330V300ZM340 300H350V310H340V300ZM350 300H360V310H350V300ZM360 300H370V310H360V300ZM380 300H390V310H380V300ZM100 310H110V320H100V310ZM120 310H130V320H120V310ZM130 310H140V320H130V310ZM160 310H170V320H160V310ZM190 310H200V320H190V310ZM220 310H230V320H220V310ZM240 310H250V320H240V310ZM250 310H260V320H250V310ZM280 310H290V320H280V310ZM300 310H310V320H300V310ZM340 310H350V320H340V310ZM350 310H360V320H350V310ZM370 310H380V320H370V310ZM20 320H30V330H20V320ZM30 320H40V330H30V320ZM40 320H50V330H40V320ZM50 320H60V330H50V320ZM60 320H70V330H60V320ZM70 320H80V330H70V320ZM80 320H90V330H80V320ZM150 320H160V330H150V320ZM160 320H170V330H160V320ZM170 320H180V330H170V320ZM180 320H190V330H180V320ZM190 320H200V330H190V320ZM200 320H210V330H200V320ZM220 320H230V330H220V320ZM230 320H240V330H230V320ZM240 320H250V330H240V320ZM250 320H260V330H250V320ZM260 320H270V330H260V320ZM270 320H280V330H270V320ZM280 320H290V330H280V320ZM300 320H310V330H300V320ZM320 320H330V330H320V320ZM340 320H350V330H340V320ZM350 320H360V330H350V320ZM360 320H370V330H360V320ZM20 330H30V340H20V330ZM80 330H90V340H80V330ZM110 330H120V340H110V330ZM140 330H150V340H140V330ZM170 330H180V340H170V330ZM180 330H190V340H180V330ZM190 330H200V340H190V330ZM200 330H210V340H200V330ZM210 330H220V340H210V330ZM230 330H240V340H230V330ZM250 330H260V340H250V330ZM300 330H310V340H300V330ZM340 330H350V340H340V330ZM360 330H370V340H360V330ZM380 330H390V340H380V330ZM20 340H30V350H20V340ZM40 340H50V350H40V340ZM50 340H60V350H50V340ZM60 340H70V350H60V340ZM80 340H90V350H80V340ZM100 340H110V350H100V340ZM110 340H120V350H110V340ZM120 340H130V350H120V340ZM130 340H140V350H130V340ZM140 340H150V350H140V340ZM160 340H170V350H160V340ZM180 340H190V350H180V340ZM210 340H220V350H210V340ZM220 340H230V350H220V340ZM300 340H310V350H300V340ZM310 340H320V350H310V340ZM320 340H330V350H320V340ZM330 340H340V350H330V340ZM340 340H350V350H340V340ZM350 340H360V350H350V340ZM360 340H370V350H360V340ZM380 340H390V350H380V340ZM20 350H30V360H20V350ZM40 350H50V360H40V350ZM50 350H60V360H50V350ZM60 350H70V360H60V350ZM80 350H90V360H80V350ZM110 350H120V360H110V350ZM170 350H180V360H170V350ZM180 350H190V360H180V350ZM190 350H200V360H190V350ZM210 350H220V360H210V350ZM230 350H240V360H230V350ZM240 350H250V360H240V350ZM260 350H270V360H260V350ZM270 350H280V360H270V350ZM280 350H290V360H280V350ZM290 350H300V360H290V350ZM320 350H330V360H320V350ZM350 350H360V360H350V350ZM360 350H370V360H360V350ZM370 350H380V360H370V350ZM20 360H30V370H20V360ZM40 360H50V370H40V360ZM50 360H60V370H50V360ZM60 360H70V370H60V360ZM80 360H90V370H80V360ZM120 360H130V370H120V360ZM130 360H140V370H130V360ZM150 360H160V370H150V360ZM170 360H180V370H170V360ZM210 360H220V370H210V360ZM250 360H260V370H250V360ZM260 360H270V370H260V360ZM270 360H280V370H270V360ZM290 360H300V370H290V360ZM300 360H310V370H300V360ZM320 360H330V370H320V360ZM330 360H340V370H330V360ZM370 360H380V370H370V360ZM20 370H30V380H20V370ZM80 370H90V380H80V370ZM100 370H110V380H100V370ZM150 370H160V380H150V370ZM170 370H180V380H170V370ZM180 370H190V380H180V370ZM210 370H220V380H210V370ZM220 370H230V380H220V370ZM230 370H240V380H230V370ZM250 370H260V380H250V370ZM290 370H300V380H290V370ZM320 370H330V380H320V370ZM330 370H340V380H330V370ZM340 370H350V380H340V370ZM360 370H370V380H360V370ZM370 370H380V380H370V370ZM20 380H30V390V390C24.4772 390 20 385.523 20 380V380ZM30 380H40V390H30V380ZM40 380H50V390H40V380ZM50 380H60V390H50V380ZM60 380H70V390H60V380ZM70 380H80V390H70V380ZM80 380H90V390H80V380ZM110 380H120V390H110V380ZM130 380H140V390H130V380ZM150 380H160V390H150V380ZM160 380H170V390H160V380ZM170 380H180V390H170V380ZM180 380H190V390H180V380ZM190 380H200V390H190V380ZM200 380H210V390H200V380ZM230 380H240V390H230V380ZM240 380H250V390H240V380ZM260 380H270V390H260V380ZM290 380H300V390H290V380ZM320 380H330V390H320V380ZM360 380H370V390H360V380ZM370 380H380V390H370V380ZM380 380H390V380C390 385.523 385.523 390 380 390V390V380Z" fill="black"/>
<g clip-path="url(#clip1_16696_59888)">
<path d="M237.188 165H172.812C168.498 165 165 168.498 165 172.812V237.188C165 241.502 168.498 245 172.812 245H237.188C241.502 245 245 241.502 245 237.188V172.812C245 168.498 241.502 165 237.188 165Z" fill="#1E4AC4"/>
<path d="M210.265 225.002H199.803V235.419H210.265V225.002Z" fill="#44FFC8"/>
<path d="M228.155 186.975C225.741 183.083 222.498 179.947 218.405 177.68C214.335 175.391 209.874 174.246 205.022 174.246C200.194 174.246 195.687 175.391 191.594 177.68C187.501 179.97 184.258 183.083 181.867 186.975C179.453 190.867 178.257 195.172 178.257 199.842C178.257 204.536 179.453 208.794 181.867 212.709C184.281 216.647 187.501 219.737 191.594 222.027C194.169 223.469 196.882 224.454 199.757 224.98V214.151C198.929 213.854 198.124 213.51 197.319 213.052C194.974 211.77 193.111 209.984 191.755 207.649C190.375 205.337 189.708 202.75 189.708 199.865C189.708 196.98 190.375 194.347 191.732 192.035C193.088 189.723 194.928 187.914 197.273 186.609C199.619 185.304 202.171 184.64 205.022 184.64C207.828 184.64 210.38 185.281 212.726 186.609C215.071 187.914 216.911 189.723 218.29 192.035C219.647 194.347 220.337 196.957 220.337 199.865C220.337 202.773 219.67 205.36 218.29 207.672C216.911 210.007 215.071 211.816 212.726 213.098C211.944 213.556 211.093 213.899 210.242 214.197V225.003C213.094 224.454 215.83 223.469 218.382 222.05C222.475 219.76 225.718 216.647 228.132 212.732C230.546 208.794 231.742 204.513 231.742 199.865C231.765 195.195 230.569 190.867 228.155 186.975Z" fill="white"/>
</g>
</g>
<defs>
<clipPath id="clip0_16696_59888">
<rect width="390" height="390" fill="white" transform="translate(10 10)"/>
</clipPath>
<clipPath id="clip1_16696_59888">
<rect width="80" height="80" fill="white" transform="translate(165 165)"/>
</clipPath>
</defs>
</svg>
